<?xml version="1.0" encoding="UTF-8" standalone="no"?>
<!-- Created with Inkscape (http://www.inkscape.org/) -->

<svg
   xmlns:dc="http://purl.org/dc/elements/1.1/"
   xmlns:cc="http://creativecommons.org/ns#"
   xmlns:rdf="http://www.w3.org/1999/02/22-rdf-syntax-ns#"
   xmlns:svg="http://www.w3.org/2000/svg"
   xmlns="http://www.w3.org/2000/svg"
   xmlns:sodipodi="http://sodipodi.sourceforge.net/DTD/sodipodi-0.dtd"
   xmlns:inkscape="http://www.inkscape.org/namespaces/inkscape"
   width="500"
   height="500"
   viewBox="0 0 132.29166 132.29167"
   version="1.1"
   id="svg8"
   inkscape:version="0.92.2 (5c3e80d, 2017-08-06)"
   sodipodi:docname="icon.svg"
   inkscape:export-filename="C:\Users\harshnisar\tradebutton\images\ICON.png"
   inkscape:export-xdpi="38.400002"
   inkscape:export-ydpi="38.400002">
  <defs
     id="defs2" />
  <sodipodi:namedview
     id="base"
     pagecolor="#ffffff"
     bordercolor="#666666"
     borderopacity="1.0"
     inkscape:pageopacity="0.0"
     inkscape:pageshadow="2"
     inkscape:zoom="1"
     inkscape:cx="460.78407"
     inkscape:cy="196.38289"
     inkscape:document-units="mm"
     inkscape:current-layer="layer2"
     showgrid="false"
     inkscape:window-width="1920"
     inkscape:window-height="1027"
     inkscape:window-x="1912"
     inkscape:window-y="-8"
     inkscape:window-maximized="1"
     units="px" />
  <metadata
     id="metadata5">
    <rdf:RDF>
      <cc:Work
         rdf:about="">
        <dc:format>image/svg+xml</dc:format>
        <dc:type
           rdf:resource="http://purl.org/dc/dcmitype/StillImage" />
        <dc:title />
      </cc:Work>
    </rdf:RDF>
  </metadata>
  <g
     inkscape:groupmode="layer"
     id="layer2"
     inkscape:label="CUT"
     transform="translate(0,-164.70832)">
    <rect
       style="opacity:1;vector-effect:none;fill:#ffc700;fill-opacity:1;stroke:none;stroke-width:0;stroke-linecap:butt;stroke-linejoin:miter;stroke-miterlimit:4;stroke-dasharray:none;stroke-dashoffset:0;stroke-opacity:1;paint-order:normal"
       id="rect847"
       width="105.83334"
       height="132.29167"
       x="7.1054274e-015"
       y="164.70831"
       rx="13.229167"
       ry="13.229166" />
    <path
       style="fill:#00ff00;stroke:#00ff00;stroke-width:1.32291663;stroke-linecap:butt;stroke-linejoin:miter;stroke-miterlimit:4;stroke-dasharray:none;stroke-opacity:1"
       d="M 3.3353275,590.01822 H 36.408237"
       id="path841-0"
       inkscape:connector-curvature="0" />
    <rect
       style="opacity:1;vector-effect:none;fill:#ff2a2a;fill-opacity:1;stroke:none;stroke-width:5.91987276;stroke-linecap:butt;stroke-linejoin:miter;stroke-miterlimit:4;stroke-dasharray:none;stroke-dashoffset:0;stroke-opacity:1;paint-order:normal"
       id="rect837-3-8-8-0-5-0-9-4"
       width="820.06885"
       height="466.41412"
       x="50.875614"
       y="-625.8468"
       transform="rotate(33.045848)" />
    <path
       style="opacity:1;vector-effect:none;fill:#383838;fill-opacity:1;stroke:none;stroke-width:22.37432289;stroke-linecap:butt;stroke-linejoin:miter;stroke-miterlimit:4;stroke-dasharray:none;stroke-dashoffset:0;stroke-opacity:1;paint-order:normal"
       d="M 358.33008 0 L 34.619141 497.59766 C 39.462129 499.15215 44.627418 500 50 500 L 450 500 C 477.7 500 500 477.7 500 450 L 500 50 C 500 22.299999 477.7 0 450 0 L 358.33008 0 z "
       transform="matrix(0.26458333,0,0,0.26458333,0,164.70832)"
       id="rect837-3-8-8-0-5-0-9-4-8" />
  </g>
  <g
     inkscape:label="Layer 1"
     inkscape:groupmode="layer"
     id="layer1"
     transform="translate(0,-164.70832)">
    <g
       transform="matrix(2.3827531,0,0,2.3827531,-174.76544,95.477026)"
       id="g927">
      <path
         inkscape:connector-curvature="0"
         style="opacity:1;vector-effect:none;fill:#ffc700;fill-opacity:1;stroke:none;stroke-width:9.89999962;stroke-linecap:butt;stroke-linejoin:miter;stroke-miterlimit:4;stroke-dasharray:none;stroke-dashoffset:0;stroke-opacity:1;paint-order:normal"
         d="m 449.61719,-490.56641 -24.25781,37.28907 c 4.41826,1.96811 6.93359,5.70812 6.93359,11.88281 0,11.0934 -6.61264,13.6543 -17.2793,13.6543 h -6.26758 l -67.54492,103.82812 v 0.0644 h 93.01172 c 10.88001,0 45.0138,9.6e-4 57.17383,-22.18554 6.18667,-10.88002 6.18698,-28.80032 -0.21289,-40.32032 -8.10667,-14.29345 -17.06743,-17.92129 -28.80078,-21.9746 14.50669,-4.9067 22.82729,-10.23923 27.94726,-25.8125 3.20002,-10.02671 2.55937,-26.45355 -5.33398,-37.54688 -8.61441,-12.22689 -22.55968,-17.01348 -35.36914,-18.87891 z m -51.03125,103.14649 h 18.77344 c 10.66665,0 17.28124,3.62563 17.28124,13.65234 0,11.09329 -6.61459,13.6543 -17.28124,13.6543 h -18.77344 z"
         transform="matrix(0.26458333,0,0,0.26458333,-9.6485601,164.70832)"
         id="rect837-3-8-5" />
      <path
         inkscape:connector-curvature="0"
         style="opacity:1;vector-effect:none;fill:#383838;fill-opacity:1;stroke:none;stroke-width:9.89999962;stroke-linecap:butt;stroke-linejoin:miter;stroke-miterlimit:4;stroke-dasharray:none;stroke-dashoffset:0;stroke-opacity:1;paint-order:normal"
         d="m 341.20117,-491.7207 v 167.87304 l 67.71289,-104.08789 h -10.32617 v -23.67968 h 25.73242 l 26.08985,-40.10547 z"
         transform="matrix(0.26458333,0,0,0.26458333,-9.6485601,164.70832)"
         id="rect837-3-6" />
    </g>
  </g>
</svg>
