<?xml version="1.0" encoding="UTF-8" standalone="no"?>
<!-- Created with Inkscape (http://www.inkscape.org/) -->

<svg
   xmlns:dc="http://purl.org/dc/elements/1.1/"
   xmlns:cc="http://creativecommons.org/ns#"
   xmlns:rdf="http://www.w3.org/1999/02/22-rdf-syntax-ns#"
   xmlns:svg="http://www.w3.org/2000/svg"
   xmlns="http://www.w3.org/2000/svg"
   xmlns:sodipodi="http://sodipodi.sourceforge.net/DTD/sodipodi-0.dtd"
   xmlns:inkscape="http://www.inkscape.org/namespaces/inkscape"
   width="2118.4341"
   height="500"
   viewBox="0 0 560.50233 132.29167"
   version="1.1"
   id="svg8"
   inkscape:version="0.92.2 (5c3e80d, 2017-08-06)"
   sodipodi:docname="TRADEBUTTON.svg"
   inkscape:export-filename="C:\Users\harshnisar\tradebutton.png"
   inkscape:export-xdpi="96"
   inkscape:export-ydpi="96">
  <defs
     id="defs2" />
  <sodipodi:namedview
     id="base"
     pagecolor="#ffffff"
     bordercolor="#666666"
     borderopacity="1.0"
     inkscape:pageopacity="0.0"
     inkscape:pageshadow="2"
     inkscape:zoom="0.35355339"
     inkscape:cx="1005.2764"
     inkscape:cy="440.18774"
     inkscape:document-units="mm"
     inkscape:current-layer="layer2"
     showgrid="false"
     inkscape:window-width="1920"
     inkscape:window-height="1027"
     inkscape:window-x="-8"
     inkscape:window-y="-8"
     inkscape:window-maximized="1"
     units="px" />
  <metadata
     id="metadata5">
    <rdf:RDF>
      <cc:Work
         rdf:about="">
        <dc:format>image/svg+xml</dc:format>
        <dc:type
           rdf:resource="http://purl.org/dc/dcmitype/StillImage" />
        <dc:title></dc:title>
      </cc:Work>
    </rdf:RDF>
  </metadata>
  <g
     inkscape:groupmode="layer"
     id="layer2"
     inkscape:label="CUT"
     transform="translate(0,-164.70832)">
    <path
       style="opacity:1;vector-effect:none;fill:#383838;fill-opacity:1;stroke:none;stroke-width:6.12783194;stroke-linecap:butt;stroke-linejoin:miter;stroke-miterlimit:4;stroke-dasharray:none;stroke-dashoffset:0;stroke-opacity:1;paint-order:normal"
       d="M 293.87142,164.70832 201.6573,296.99998 H 489.695 c 39.2646,0 70.87474,-29.50103 70.87474,-66.14583 0,-36.64479 -31.61014,-66.14583 -70.87474,-66.14583 z"
       id="rect837-3-8-8-0-5-0"
       inkscape:connector-curvature="0" />
    <rect
       style="opacity:1;vector-effect:none;fill:#383838;fill-opacity:1;stroke:none;stroke-width:3.78074193;stroke-linecap:butt;stroke-linejoin:miter;stroke-miterlimit:4;stroke-dasharray:none;stroke-dashoffset:0;stroke-opacity:1;paint-order:normal"
       id="rect837-0"
       width="661.45831"
       height="132.29167"
       x="3.3236916"
       y="523.9162"
       ry="66.145836" />
    <path
       style="fill:#00ff00;stroke:#00ff00;stroke-width:1.32291663;stroke-linecap:butt;stroke-linejoin:miter;stroke-miterlimit:4;stroke-dasharray:none;stroke-opacity:1"
       d="M 3.3353275,590.01822 H 36.408237"
       id="path841-0"
       inkscape:connector-curvature="0" />
    <path
       style="opacity:1;vector-effect:none;fill:#ffc700;fill-opacity:1;stroke:none;stroke-width:3.18105173;stroke-linecap:butt;stroke-linejoin:miter;stroke-miterlimit:4;stroke-dasharray:none;stroke-dashoffset:0;stroke-opacity:1;paint-order:normal"
       d="M 68.862241,164.70832 C 30.712557,164.70832 0,194.20936 0,230.85415 c 0,36.6448 30.712557,66.14583 68.862241,66.14583 H 214.56505 L 304.1613,164.70832 Z"
       id="rect837-0-8"
       inkscape:connector-curvature="0" />
    <rect
       style="opacity:1;vector-effect:none;fill:#ff2a2a;fill-opacity:1;stroke:none;stroke-width:5.91987276;stroke-linecap:butt;stroke-linejoin:miter;stroke-miterlimit:4;stroke-dasharray:none;stroke-dashoffset:0;stroke-opacity:1;paint-order:normal"
       id="rect837-3-8-8-0-5-0-9-4"
       width="820.06885"
       height="466.41412"
       x="89.578636"
       y="-1068.1182"
       transform="rotate(33.045848)" />
  </g>
  <g
     inkscape:label="Layer 1"
     inkscape:groupmode="layer"
     id="layer1"
     transform="translate(0,-164.70832)">
    <g
       id="g970"
       transform="translate(9.6485601)">
      <path
         inkscape:connector-curvature="0"
         id="rect837-3-8"
         d="m 432.9839,207.42969 c -13.9982,0 -24.60985,10.49864 -24.60985,23.42441 0,12.92577 10.72452,23.42441 24.60985,23.42441 14.11113,0 24.60988,-10.49864 24.60988,-23.42441 0,-12.92577 -10.49875,-23.42441 -24.60988,-23.42441 z m 29.82558,0.16949 v 44.98589 h 15.18356 v -16.82014 l 29.06903,18.00561 h 1.07228 v -45.60705 h -15.18356 v 17.385 l -28.56053,-17.94931 z m -181.90104,0.56431 v 26.98027 c 0,17.04623 10.61164,19.07842 20.37654,19.07842 9.76487,0 20.37652,-2.03219 20.37652,-19.07842 v -26.98027 h -15.18357 v 24.44038 c 0,3.89467 -0.0564,7.95869 -5.24928,7.95869 -5.13646,0 -5.13664,-4.06402 -5.13664,-7.95869 v -24.44038 z m 44.25672,0 v 12.58683 l 12.75686,-1.07227 v 32.90702 h 15.18357 v -32.90702 l 12.7,1.07227 v -12.58683 z m 42.88473,0 v 12.58683 l 12.75633,-1.07227 v 32.90702 h 15.18356 v -32.90702 l 12.7,1.07227 v -12.58683 z m -104.36831,0.31059 -6.41821,9.86605 c 1.169,0.52073 1.83451,1.51027 1.83451,3.14399 0,2.93513 -1.74959,3.6127 -4.57181,3.6127 h -1.65829 l -17.87126,27.47121 v 0.017 h 24.60934 c 2.87867,0 11.90991,2.9e-4 15.12725,-5.86991 1.63689,-2.87867 1.637,-7.62008 -0.0563,-10.66808 -2.14489,-3.7818 -4.51576,-4.74168 -7.62021,-5.81412 3.83823,-1.29823 6.03972,-2.70912 7.39438,-6.82955 0.84667,-2.6529 0.67717,-6.99918 -1.41128,-9.93429 -2.27923,-3.23503 -5.96892,-4.50148 -9.35809,-4.99504 z m 169.35865,13.0669 c 5.24933,0 9.08783,4.28956 9.08783,9.31312 0,5.02356 -4.00743,9.31312 -9.03097,9.31312 -5.41867,0 -9.25732,-4.28956 -9.25732,-9.31312 0,-5.02356 3.83826,-9.31312 9.20046,-9.31312 z m -182.86066,14.22395 h 4.96714 c 2.82222,0 4.57233,0.95927 4.57233,3.61217 0,2.9351 -1.75011,3.6127 -4.57233,3.6127 h -4.96714 z"
         style="opacity:1;vector-effect:none;fill:#ffc700;fill-opacity:1;stroke:none;stroke-width:2.61937475;stroke-linecap:butt;stroke-linejoin:miter;stroke-miterlimit:4;stroke-dasharray:none;stroke-dashoffset:0;stroke-opacity:1;paint-order:normal" />
      <path
         id="rect837-3"
         d="m 154.42105,207.6038 -26.47227,44.9864 h 16.59485 l 2.48356,-5.41879 h 16.19954 l 2.48356,5.41879 h 16.59435 l -26.4723,-44.9864 z m -121.348133,0.56482 v 12.58683 l 12.756327,-1.07228 v 32.90703 h 15.18357 v -32.90703 l 12.7,1.07228 v -12.58683 z m 45.649925,0 v 44.42158 h 15.183569 v -12.41785 h 6.265239 l 8.12819,12.41785 h 18.34462 l -12.36152,-19.07842 c 1.24177,-1.18534 2.14514,-1.86257 3.6127,-3.78168 2.87867,-3.89467 3.38632,-9.65168 1.41076,-13.60279 -3.556,-7.22489 -10.72417,-7.95869 -16.31217,-7.95869 z m 107.589288,0 v 44.42158 h 20.9977 c 5.53154,0.0564 13.82853,-0.73392 18.34409,-7.90236 4.51557,-7.22489 4.91096,-18.45738 1.35496,-25.62583 -4.28977,-8.46666 -12.24875,-10.89339 -19.02208,-10.89339 z m 48.68439,0 v 44.41641 l 17.91568,-27.53992 h -2.73212 v -6.26525 h 6.80837 l 6.90292,-10.61124 z M 93.906411,218.77986 h 5.306129 c 2.82223,0 5.02349,2.65325 5.02349,5.30614 0,2.93511 -2.20126,5.24929 -5.02349,5.24929 h -5.306129 z m 108.807819,0.49764 c 2.95484,-0.0301 6.58508,0.0316 8.65942,2.94556 2.25779,3.048 2.37074,11.28888 0.95964,14.44977 -1.9191,4.45911 -4.4029,4.79764 -10.83757,4.79764 v -22.18263 c 0.38804,0 0.7964,-0.006 1.21851,-0.0103 z m -47.61568,10.05779 3.89485,8.46666 h -7.73287 z"
         style="opacity:1;vector-effect:none;fill:#383838;fill-opacity:1;stroke:none;stroke-width:2.61937475;stroke-linecap:butt;stroke-linejoin:miter;stroke-miterlimit:4;stroke-dasharray:none;stroke-dashoffset:0;stroke-opacity:1;paint-order:normal"
         inkscape:connector-curvature="0" />
    </g>
  </g>
</svg>
