<?xml version="1.0" encoding="UTF-8" standalone="no"?>
<!-- Created with Inkscape (http://www.inkscape.org/) -->

<svg
   xmlns:dc="http://purl.org/dc/elements/1.1/"
   xmlns:cc="http://creativecommons.org/ns#"
   xmlns:rdf="http://www.w3.org/1999/02/22-rdf-syntax-ns#"
   xmlns:svg="http://www.w3.org/2000/svg"
   xmlns="http://www.w3.org/2000/svg"
   xmlns:sodipodi="http://sodipodi.sourceforge.net/DTD/sodipodi-0.dtd"
   xmlns:inkscape="http://www.inkscape.org/namespaces/inkscape"
   width="512"
   height="362"
   viewBox="0 0 135.46666 95.779169"
   version="1.1"
   id="svg8"
   inkscape:version="0.92.2 (5c3e80d, 2017-08-06)"
   sodipodi:docname="tradebutton_code.svg"
   inkscape:export-filename="C:\Users\harshnisar\CODE.png"
   inkscape:export-xdpi="96"
   inkscape:export-ydpi="96">
  <defs
     id="defs2" />
  <sodipodi:namedview
     id="base"
     pagecolor="#ffffff"
     bordercolor="#666666"
     borderopacity="1.0"
     inkscape:pageopacity="0.0"
     inkscape:pageshadow="2"
     inkscape:zoom="0.7"
     inkscape:cx="-44.762723"
     inkscape:cy="203.93187"
     inkscape:document-units="mm"
     inkscape:current-layer="layer1"
     showgrid="false"
     units="px"
     inkscape:window-width="1920"
     inkscape:window-height="1027"
     inkscape:window-x="1912"
     inkscape:window-y="-8"
     inkscape:window-maximized="1" />
  <metadata
     id="metadata5">
    <rdf:RDF>
      <cc:Work
         rdf:about="">
        <dc:format>image/svg+xml</dc:format>
        <dc:type
           rdf:resource="http://purl.org/dc/dcmitype/StillImage" />
        <dc:title />
      </cc:Work>
    </rdf:RDF>
  </metadata>
  <g
     inkscape:label="Layer 1"
     inkscape:groupmode="layer"
     id="layer1"
     transform="translate(0,-201.22082)">
    <path
       style="opacity:1;vector-effect:none;fill:#ffc700;fill-opacity:1;stroke:none;stroke-width:0;stroke-linecap:butt;stroke-linejoin:miter;stroke-miterlimit:4;stroke-dasharray:none;stroke-dashoffset:0;stroke-opacity:1;paint-order:normal"
       d="M 64 0 C 28.544002 0 0 28.544002 0 64 L 0 298 C 0 333.456 28.544002 362 64 362 L 448 362 C 483.456 362 512 333.456 512 298 L 512 64 C 512 28.544002 483.456 0 448 0 L 64 0 z M 282.05469 76.240234 L 312.00977 76.240234 L 224.0293 285.75977 L 194.19922 285.75977 L 282.05469 76.240234 z M 140.83398 114.97852 L 160.46875 135.3125 L 98.039062 187.69141 L 160.46875 240.71484 L 140.83398 261.05078 L 56 187.94922 L 140.83398 114.97852 z M 371.16602 114.97852 L 456 187.94922 L 371.16602 261.05078 L 351.6582 240.71484 L 413.96094 188.20703 L 351.6582 135.3125 L 371.16602 114.97852 z "
       transform="matrix(0.26458333,0,0,0.26458333,0,201.22082)"
       id="rect2511" />
  </g>
</svg>
