<?xml version="1.0" encoding="UTF-8" standalone="no"?>
<!-- Created with Inkscape (http://www.inkscape.org/) -->

<svg
   xmlns:dc="http://purl.org/dc/elements/1.1/"
   xmlns:cc="http://creativecommons.org/ns#"
   xmlns:rdf="http://www.w3.org/1999/02/22-rdf-syntax-ns#"
   xmlns:svg="http://www.w3.org/2000/svg"
   xmlns="http://www.w3.org/2000/svg"
   xmlns:sodipodi="http://sodipodi.sourceforge.net/DTD/sodipodi-0.dtd"
   xmlns:inkscape="http://www.inkscape.org/namespaces/inkscape"
   width="512"
   height="362"
   viewBox="0 0 135.46666 95.779169"
   version="1.1"
   id="svg8"
   inkscape:version="0.92.2 (5c3e80d, 2017-08-06)"
   sodipodi:docname="tradebutton_manage.svg"
   inkscape:export-filename="C:\Users\harshnisar\MANAGE.png"
   inkscape:export-xdpi="96"
   inkscape:export-ydpi="96">
  <defs
     id="defs2" />
  <sodipodi:namedview
     id="base"
     pagecolor="#ffffff"
     bordercolor="#666666"
     borderopacity="1.0"
     inkscape:pageopacity="0.0"
     inkscape:pageshadow="2"
     inkscape:zoom="1.4"
     inkscape:cx="183.24248"
     inkscape:cy="201.901"
     inkscape:document-units="mm"
     inkscape:current-layer="layer1"
     showgrid="false"
     units="px"
     inkscape:window-width="1920"
     inkscape:window-height="1027"
     inkscape:window-x="1912"
     inkscape:window-y="-8"
     inkscape:window-maximized="1" />
  <metadata
     id="metadata5">
    <rdf:RDF>
      <cc:Work
         rdf:about="">
        <dc:format>image/svg+xml</dc:format>
        <dc:type
           rdf:resource="http://purl.org/dc/dcmitype/StillImage" />
        <dc:title />
      </cc:Work>
    </rdf:RDF>
  </metadata>
  <g
     inkscape:label="Layer 1"
     inkscape:groupmode="layer"
     id="layer1"
     transform="translate(0,-201.22082)">
    <path
       style="opacity:1;vector-effect:none;fill:#ffc700;fill-opacity:1;stroke:none;stroke-width:0;stroke-linecap:butt;stroke-linejoin:miter;stroke-miterlimit:4;stroke-dasharray:none;stroke-dashoffset:0;stroke-opacity:1;paint-order:normal"
       d="M 64 0 C 28.544002 0 0 28.544002 0 64 L 0 298 C 0 333.456 28.544002 362 64 362 L 448 362 C 483.456 362 512 333.456 512 298 L 512 64 C 512 28.544002 483.456 0 448 0 L 64 0 z M 255.89648 53 C 276.95276 53 298.07863 59.09468 319.27344 71.285156 C 361.66305 95.666108 382.85742 132.2381 382.85742 181 C 382.85742 229.7619 361.66305 266.33389 319.27344 290.71484 C 298.07863 302.90532 276.95276 309 255.89648 309 C 234.70168 309 213.57581 302.90532 192.51953 290.71484 C 150.26845 266.33389 129.14258 229.7619 129.14258 181 C 129.14258 132.2381 150.26845 95.666108 192.51953 71.285156 C 213.57581 59.09468 234.70168 53 255.89648 53 z M 244.05273 79.388672 C 231.03109 81.189538 218.07843 85.831981 205.19531 93.3125 C 171.39445 112.84497 154.49414 142.07359 154.49414 181 C 154.49414 219.92641 171.39445 249.15503 205.19531 268.6875 C 222.09575 278.523 238.99605 283.44141 255.89648 283.44141 C 272.79692 283.44141 289.69722 278.523 306.59766 268.6875 C 336.93532 251.23295 353.69667 226.02243 356.88281 193.05273 L 244.05273 193.05273 L 244.05273 79.388672 z M 267.74023 79.388672 L 267.74023 169.36328 L 356.88281 169.36328 C 353.83519 136.11653 337.07385 110.76705 306.59766 93.3125 C 293.57601 85.831981 280.62335 81.189538 267.74023 79.388672 z "
       transform="matrix(0.26458333,0,0,0.26458333,0,201.22082)"
       id="rect1401" />
  </g>
</svg>
