<?xml version="1.0" encoding="UTF-8" standalone="no"?>
<!-- Created with Inkscape (http://www.inkscape.org/) -->

<svg
   xmlns:dc="http://purl.org/dc/elements/1.1/"
   xmlns:cc="http://creativecommons.org/ns#"
   xmlns:rdf="http://www.w3.org/1999/02/22-rdf-syntax-ns#"
   xmlns:svg="http://www.w3.org/2000/svg"
   xmlns="http://www.w3.org/2000/svg"
   xmlns:sodipodi="http://sodipodi.sourceforge.net/DTD/sodipodi-0.dtd"
   xmlns:inkscape="http://www.inkscape.org/namespaces/inkscape"
   width="1024"
   height="724"
   viewBox="0 0 270.93332 191.55834"
   version="1.1"
   id="svg8"
   inkscape:version="0.92.2 (5c3e80d, 2017-08-06)"
   sodipodi:docname="tradebutton_partner.svg"
   inkscape:export-filename="C:\Users\harshnisar\PARTNER.png"
   inkscape:export-xdpi="96"
   inkscape:export-ydpi="96">
  <defs
     id="defs2" />
  <sodipodi:namedview
     id="base"
     pagecolor="#ffffff"
     bordercolor="#666666"
     borderopacity="1.0"
     inkscape:pageopacity="0.0"
     inkscape:pageshadow="2"
     inkscape:zoom="0.7"
     inkscape:cx="270.25397"
     inkscape:cy="286.07557"
     inkscape:document-units="mm"
     inkscape:current-layer="layer1"
     showgrid="false"
     units="px"
     inkscape:window-width="1920"
     inkscape:window-height="1027"
     inkscape:window-x="1912"
     inkscape:window-y="-8"
     inkscape:window-maximized="1"
     showguides="true" />
  <metadata
     id="metadata5">
    <rdf:RDF>
      <cc:Work
         rdf:about="">
        <dc:format>image/svg+xml</dc:format>
        <dc:type
           rdf:resource="http://purl.org/dc/dcmitype/StillImage" />
        <dc:title />
      </cc:Work>
    </rdf:RDF>
  </metadata>
  <g
     inkscape:label="Layer 1"
     inkscape:groupmode="layer"
     id="layer1"
     transform="translate(0,-105.44165)">
    <path
       style="opacity:1;vector-effect:none;fill:#000000;fill-opacity:1;stroke:none;stroke-width:0;stroke-linecap:butt;stroke-linejoin:miter;stroke-miterlimit:4;stroke-dasharray:none;stroke-dashoffset:0;stroke-opacity:1;paint-order:normal"
       d="M 128 0 C 57.088006 0 0 57.088006 0 128 L 0 596 C 0 666.912 57.088006 724 128 724 L 896 724 C 966.912 724 1024 666.912 1024 596 L 1024 128 C 1024 57.088006 966.912 0 896 0 L 128 0 z M 152.46094 284 C 162.54371 284 171.9874 285.91839 180.79102 289.75586 C 189.66987 293.51809 197.38146 298.71051 203.92773 305.33203 C 210.54925 311.87831 215.74168 319.55381 219.50391 328.35742 C 223.34138 337.16103 225.25977 346.56669 225.25977 356.57422 C 225.25977 363.49672 224.35665 370.11696 222.55078 376.4375 C 220.74491 382.75804 218.14968 388.66535 214.76367 394.1582 L 274.13086 450.5918 C 276.01197 452.17193 277.44174 454.27855 278.41992 456.91211 C 279.3981 459.47042 279.88672 462.02958 279.88672 464.58789 C 279.88672 466.99572 279.43614 469.36468 278.5332 471.69727 C 277.63027 474.02985 276.27462 476.13646 274.46875 478.01758 C 272.58764 479.97394 270.44298 481.44174 268.03516 482.41992 C 265.70258 483.47335 263.25753 484 260.69922 484 C 258.21615 484 255.77111 483.54942 253.36328 482.64648 C 250.95546 481.74355 248.96099 480.42594 247.38086 478.69531 L 186.54688 420.79492 C 181.43025 423.50373 176.01155 425.61034 170.29297 427.11523 C 164.57438 428.54488 158.63099 429.25977 152.46094 429.25977 C 145.76417 429.25977 139.33021 428.39469 133.16016 426.66406 C 127.06535 424.93344 121.31019 422.4884 115.89258 419.32812 C 110.55022 416.16787 105.65818 412.36716 101.21875 407.92773 C 96.854566 403.48831 93.091911 398.59822 89.931641 393.25586 C 86.77137 387.83825 84.326328 382.0431 82.595703 375.87305 C 80.865079 369.62775 80 363.19574 80 356.57422 C 80 349.87745 80.865079 343.44349 82.595703 337.27344 C 84.326328 331.10338 86.77137 325.34627 89.931641 320.00391 C 93.091911 314.5863 96.854566 309.69621 101.21875 305.33203 C 105.65818 300.8926 110.55022 297.09191 115.89258 293.93164 C 121.31019 290.77137 127.06535 288.32633 133.16016 286.5957 C 139.33021 284.86508 145.76417 284 152.46094 284 z M 844.8125 284 C 861.26272 284 877.76578 288.76135 894.32422 298.28516 C 927.4411 317.33278 944 345.90476 944 384 C 944 422.09524 927.4411 450.66722 894.32422 469.71484 C 877.76578 479.23865 861.26272 484 844.8125 484 C 828.25406 484 811.74904 479.23865 795.29883 469.71484 C 762.29017 450.66722 745.78516 422.09524 745.78516 384 C 745.78516 345.90476 762.29017 317.33278 795.29883 298.28516 C 811.74904 288.76135 828.25406 284 844.8125 284 z M 835.55859 304.61719 C 825.38543 306.02411 815.26611 309.64998 805.20117 315.49414 C 778.79425 330.75388 765.5918 353.58874 765.5918 384 C 765.5918 414.41126 778.79425 437.24612 805.20117 452.50586 C 818.40463 460.18984 831.60904 464.0332 844.8125 464.0332 C 858.01596 464.0332 871.21841 460.18984 884.42188 452.50586 C 908.12317 438.8695 921.21981 419.17359 923.70898 393.41602 L 835.55859 393.41602 L 835.55859 304.61719 z M 854.06445 304.61719 L 854.06445 374.9082 L 923.70898 374.9082 C 921.32803 348.93418 908.2314 329.1305 884.42188 315.49414 C 874.24871 309.64998 864.12939 306.02411 854.06445 304.61719 z M 152.46094 305.66992 C 145.46319 305.66992 138.87904 307.02557 132.70898 309.73438 C 126.53893 312.36791 121.15828 315.97844 116.56836 320.56836 C 111.97844 325.15828 108.3299 330.57697 105.62109 336.82227 C 102.98753 342.99232 101.66992 349.57648 101.66992 356.57422 C 101.66992 363.57196 102.98753 370.15417 105.62109 376.32422 C 108.3299 382.49427 111.97844 387.87493 116.56836 392.46484 C 121.15828 397.05476 126.53893 400.70526 132.70898 403.41406 C 138.87904 406.04762 145.46319 407.36328 152.46094 407.36328 C 159.45868 407.36328 166.04284 406.04762 172.21289 403.41406 C 178.38294 400.70526 183.76165 397.05476 188.35156 392.46484 C 192.94148 387.87493 196.55394 382.49427 199.1875 376.32422 C 201.8963 370.15417 203.25 363.57196 203.25 356.57422 C 203.25 349.57648 201.8963 342.99232 199.1875 336.82227 C 196.55394 330.57697 192.94148 325.15828 188.35156 320.56836 C 183.76165 315.97844 178.38294 312.36791 172.21289 309.73438 C 166.04284 307.02557 159.45868 305.66992 152.46094 305.66992 z M 536.87109 444 L 565.46484 444 L 481.48242 644 L 453.00781 644 L 536.87109 444 z M 402.06641 480.97852 L 420.80859 500.38867 L 361.2168 550.38867 L 420.80859 601.00195 L 402.06641 620.41211 L 321.08789 550.63477 L 402.06641 480.97852 z M 621.93359 480.97852 L 702.91211 550.63477 L 621.93359 620.41211 L 603.31055 601.00195 L 662.7832 550.87891 L 603.31055 500.38867 L 621.93359 480.97852 z "
       transform="matrix(0.26458333,0,0,0.26458333,0,105.44165)"
       id="rect844" />
    <g
       id="g2552"
       transform="matrix(0.99989053,0,0,0.99989053,297.95346,101.858)">
      <g
         aria-label="👥"
         transform="matrix(0.30159738,0,0,0.30838471,-190.71092,16.605731)"
         style="font-style:normal;font-variant:normal;font-weight:bold;font-stretch:normal;font-size:266.66207886px;line-height:1.25;font-family:Consolas;-inkscape-font-specification:'Consolas, Bold';font-variant-ligatures:normal;font-variant-caps:normal;font-variant-numeric:normal;font-feature-settings:normal;text-align:start;letter-spacing:0px;word-spacing:0px;writing-mode:lr-tb;text-anchor:start;fill:#ffc700;fill-opacity:1;stroke:none"
         id="flowRoot815-0-8-8">
        <path
           d="m 199.08058,89.204887 q -3.77597,2.213504 -7.94257,3.515565 -4.16659,1.302061 -8.72381,1.302061 -4.81762,0 -9.11442,-1.302061 -4.1666,-1.302061 -7.81237,-3.515565 -7.81236,-4.427007 -12.36958,-12.109166 -4.55721,-7.68216 -4.55721,-17.056999 0,-7.031129 2.60412,-13.150815 2.60412,-6.119686 7.16134,-10.6769 4.68742,-4.557213 10.8071,-7.161335 6.24989,-2.604122 13.28102,-2.604122 7.03113,0 13.15082,2.604122 6.11969,2.604122 10.6769,7.161335 4.55721,4.557214 7.16133,10.6769 2.73433,6.119686 2.73433,13.150815 0,9.374839 -4.81762,17.056999 -4.68742,7.682159 -12.23938,12.109166 z M 112.36333,108.7358 q -8.4634,5.46866 -18.619476,5.46866 -5.338449,0 -10.156075,-1.30206 -4.687419,-1.43227 -9.114426,-4.03639 -8.463396,-4.94783 -13.541434,-13.541436 -4.947832,-8.593602 -4.947832,-19.01009 0,-7.942572 2.864534,-14.843495 2.994741,-6.900922 8.072778,-11.97896 5.078038,-5.078038 11.978961,-7.942572 6.900923,-2.99474 14.843494,-2.99474 7.682156,0 14.452876,2.99474 6.90092,2.864534 11.97896,7.942572 5.07804,5.078038 8.07278,11.97896 2.99474,6.900923 2.99474,14.843495 0,10.416488 -5.20824,19.01009 -5.20825,8.593606 -13.67164,13.411226 z m 148.30474,98.95663 v 0.52083 q 0,3.38535 -2.0833,5.85927 -1.95309,2.34371 -5.33845,2.60412 l -4.1666,0.26041 q -2.99474,0 -5.07803,-2.2135 -1.9531,-2.34371 -2.21351,-5.72907 l -6.77071,-37.88997 q -0.26042,-1.56247 -0.78124,-3.12495 -0.52083,-1.69268 -1.17186,-2.99474 -0.65103,-1.43226 -1.43226,-2.2135 -0.65103,-0.91144 -1.43227,-0.91144 h -1.56247 q -1.30206,0.26041 -1.82289,2.99474 -0.52082,2.60412 -0.52082,6.77071 0,2.73433 0.1302,5.98948 0.26042,3.25516 0.52083,6.64052 l 2.60412,17.05699 q 0.26041,0.52083 0.26041,0.91145 0.13021,0.39061 0.13021,0.65103 0.26041,2.08329 0.39062,4.68742 0.26041,2.47391 0.26041,5.07803 0,3.38536 -0.78124,6.51031 -0.65103,2.99474 -2.86453,5.20824 -1.95309,1.69268 -5.59886,3.12495 -3.51557,1.30206 -8.4634,2.34371 -4.81763,0.91144 -10.6769,1.56247 -5.85927,0.65103 -12.36958,0.91144 l -2.99474,-29.81719 q -0.65103,-6.90092 -1.56247,-13.41123 -0.78124,-6.64051 -2.21351,-13.02061 -1.30206,-6.3801 -3.38535,-12.62999 -1.9531,-6.24989 -5.07804,-12.49978 -4.42701,-8.98422 -11.71855,-15.88515 -7.29154,-7.03113 -16.92679,-11.97896 -6.11969,-2.60412 -10.28628,-3.77598 -4.03639,-1.17185 -6.64051,-1.56247 6.77071,-3.90618 12.8904,-6.5103 6.24989,-2.60412 12.23937,-4.1666 6.11969,-1.56247 12.36958,-2.2135 6.3801,-0.65103 13.41123,-0.65103 12.49978,0 22.00483,1.30206 9.50504,1.17185 16.40597,3.25515 7.03112,1.95309 11.84875,4.81763 4.81763,2.73432 8.07278,5.85927 3.38536,2.99474 5.33845,6.24989 2.0833,3.12495 3.64577,6.11969 2.47391,5.07804 4.03639,10.41649 1.69268,5.20824 2.73433,10.6769 1.04164,5.46865 1.69267,11.19772 0.78124,5.72907 1.43227,11.71855 z M 42.442654,188.81255 q -1.432267,0.26041 -2.604122,1.56247 -1.041649,1.30206 -1.953092,2.86454 -0.781236,1.56247 -1.30206,3.12494 -0.520825,1.56248 -0.520825,2.34371 l -7.291541,41.92636 q -0.260412,3.90619 -2.734328,6.2499 -2.34371,2.47391 -6.249892,2.47391 h -3.906183 q -3.385359,-0.26041 -5.729068,-2.99474 -2.213504,-2.73433 -2.213504,-6.5103 l 3.255152,-35.28585 q 1.302061,-7.03113 2.213504,-13.41123 1.041649,-6.3801 2.083297,-12.36958 1.171855,-5.98948 2.734328,-11.71855 1.69268,-5.72907 4.427008,-11.58834 3.64577,-7.81237 9.765457,-13.67164 6.249892,-5.98948 13.932052,-9.37484 4.036388,-1.82289 9.244632,-2.99474 5.33845,-1.30206 10.937312,-2.0833 5.729068,-0.91144 11.32793,-1.30206 5.729068,-0.52082 10.6769,-0.65103 4.947831,-0.26041 8.723808,-0.26041 3.775981,-0.13021 5.729071,-0.13021 4.2968,0 8.85401,0.52083 4.68742,0.39062 8.85402,1.04165 2.2135,0.26041 3.90618,0.78123 1.82288,0.39062 3.77598,0.91145 3.38535,0.65103 6.77071,1.82288 3.38536,1.04165 6.3801,2.34371 7.42175,3.77598 13.54143,9.50505 6.2499,5.72906 10.15608,13.54143 2.86453,5.85927 4.68742,12.23937 1.82288,6.24989 3.12495,12.62999 1.30206,6.3801 2.08329,12.89041 0.91145,6.38009 1.82289,12.36957 l 2.99474,33.46297 q 0,4.1666 -2.21351,7.03113 -2.08329,2.99474 -5.46865,3.25515 l -4.1666,0.26041 q -3.64577,0 -6.24989,-2.60412 -2.47391,-2.47391 -2.73433,-6.3801 l -7.42174,-41.27533 q -1.43227,-4.16659 -2.60413,-7.29154 -1.04164,-3.25515 -3.38535,-3.25515 -2.21351,0 -2.99474,2.60412 -0.65103,2.60412 -0.65103,7.03113 0,3.12495 0.1302,7.03113 0.26041,3.77598 0.52083,7.94257 l 3.25515,18.61947 q 0,1.56247 0.26041,2.21351 0.26041,2.2135 0.52082,4.94783 0.26042,2.73432 0.26042,5.59886 0,3.77598 -0.91145,7.16133 -0.78123,3.38536 -3.38535,5.72907 -2.21351,1.95309 -7.16134,3.64577 -4.81763,1.69268 -11.45814,2.86454 -6.64051,1.17185 -14.58308,1.82288 -7.81236,0.65103 -16.015348,0.65103 -8.33319,0 -16.015349,-0.65103 -7.68216,-0.65103 -14.192464,-1.82288 -6.380099,-1.17186 -11.197724,-2.86454 -4.68742,-1.69268 -7.031129,-3.64577 -2.473916,-2.34371 -3.385359,-5.72907 -0.781236,-3.38535 -0.781236,-7.16133 0,-2.86454 0.260412,-5.59886 0.390618,-2.73433 0.781236,-4.94783 0,-0.52083 0,-1.04165 0,-0.52083 0.260413,-1.17186 l 2.864534,-18.61947 q 0.260412,-3.77598 0.390618,-7.29154 0.260412,-3.64577 0.260412,-6.64051 0,-4.94783 -0.65103,-7.81237 -0.520825,-2.86453 -2.604122,-2.86453 z"
           style=""
           id="path2049" />
      </g>
      <g
         aria-label="👥"
         transform="matrix(-0.30159738,0,0,0.30838471,-134.29827,16.59762)"
         style="font-style:normal;font-variant:normal;font-weight:bold;font-stretch:normal;font-size:266.66207886px;line-height:1.25;font-family:Consolas;-inkscape-font-specification:'Consolas, Bold';font-variant-ligatures:normal;font-variant-caps:normal;font-variant-numeric:normal;font-feature-settings:normal;text-align:start;letter-spacing:0px;word-spacing:0px;writing-mode:lr-tb;text-anchor:start;fill:#ffc700;fill-opacity:1;stroke:none"
         id="flowRoot815-0-8-8-8">
        <path
           d="m 199.08058,89.204887 q -3.77597,2.213504 -7.94257,3.515565 -4.16659,1.302061 -8.72381,1.302061 -4.81762,0 -9.11442,-1.302061 -4.1666,-1.302061 -7.81237,-3.515565 -7.81236,-4.427007 -12.36958,-12.109166 -4.55721,-7.68216 -4.55721,-17.056999 0,-7.031129 2.60412,-13.150815 2.60412,-6.119686 7.16134,-10.6769 4.68742,-4.557213 10.8071,-7.161335 6.24989,-2.604122 13.28102,-2.604122 7.03113,0 13.15082,2.604122 6.11969,2.604122 10.6769,7.161335 4.55721,4.557214 7.16133,10.6769 2.73433,6.119686 2.73433,13.150815 0,9.374839 -4.81762,17.056999 -4.68742,7.682159 -12.23938,12.109166 z M 112.36333,108.7358 q -8.4634,5.46866 -18.619476,5.46866 -5.338449,0 -10.156075,-1.30206 -4.687419,-1.43227 -9.114426,-4.03639 -8.463396,-4.94783 -13.541434,-13.541436 -4.947832,-8.593602 -4.947832,-19.01009 0,-7.942572 2.864534,-14.843495 2.994741,-6.900922 8.072778,-11.97896 5.078038,-5.078038 11.978961,-7.942572 6.900923,-2.99474 14.843494,-2.99474 7.682156,0 14.452876,2.99474 6.90092,2.864534 11.97896,7.942572 5.07804,5.078038 8.07278,11.97896 2.99474,6.900923 2.99474,14.843495 0,10.416488 -5.20824,19.01009 -5.20825,8.593606 -13.67164,13.411226 z m 148.30474,98.95663 v 0.52083 q 0,3.38535 -2.0833,5.85927 -1.95309,2.34371 -5.33845,2.60412 l -4.1666,0.26041 q -2.99474,0 -5.07803,-2.2135 -1.9531,-2.34371 -2.21351,-5.72907 l -6.77071,-37.88997 q -0.26042,-1.56247 -0.78124,-3.12495 -0.52083,-1.69268 -1.17186,-2.99474 -0.65103,-1.43226 -1.43226,-2.2135 -0.65103,-0.91144 -1.43227,-0.91144 h -1.56247 q -1.30206,0.26041 -1.82289,2.99474 -0.52082,2.60412 -0.52082,6.77071 0,2.73433 0.1302,5.98948 0.26042,3.25516 0.52083,6.64052 l 2.60412,17.05699 q 0.26041,0.52083 0.26041,0.91145 0.13021,0.39061 0.13021,0.65103 0.26041,2.08329 0.39062,4.68742 0.26041,2.47391 0.26041,5.07803 0,3.38536 -0.78124,6.51031 -0.65103,2.99474 -2.86453,5.20824 -1.95309,1.69268 -5.59886,3.12495 -3.51557,1.30206 -8.4634,2.34371 -4.81763,0.91144 -10.6769,1.56247 -5.85927,0.65103 -12.36958,0.91144 l -2.99474,-29.81719 q -0.65103,-6.90092 -1.56247,-13.41123 -0.78124,-6.64051 -2.21351,-13.02061 -1.30206,-6.3801 -3.38535,-12.62999 -1.9531,-6.24989 -5.07804,-12.49978 -4.42701,-8.98422 -11.71855,-15.88515 -7.29154,-7.03113 -16.92679,-11.97896 -6.11969,-2.60412 -10.28628,-3.77598 -4.03639,-1.17185 -6.64051,-1.56247 6.77071,-3.90618 12.8904,-6.5103 6.24989,-2.60412 12.23937,-4.1666 6.11969,-1.56247 12.36958,-2.2135 6.3801,-0.65103 13.41123,-0.65103 12.49978,0 22.00483,1.30206 9.50504,1.17185 16.40597,3.25515 7.03112,1.95309 11.84875,4.81763 4.81763,2.73432 8.07278,5.85927 3.38536,2.99474 5.33845,6.24989 2.0833,3.12495 3.64577,6.11969 2.47391,5.07804 4.03639,10.41649 1.69268,5.20824 2.73433,10.6769 1.04164,5.46865 1.69267,11.19772 0.78124,5.72907 1.43227,11.71855 z M 42.442654,188.81255 q -1.432267,0.26041 -2.604122,1.56247 -1.041649,1.30206 -1.953092,2.86454 -0.781236,1.56247 -1.30206,3.12494 -0.520825,1.56248 -0.520825,2.34371 l -7.291541,41.92636 q -0.260412,3.90619 -2.734328,6.2499 -2.34371,2.47391 -6.249892,2.47391 h -3.906183 q -3.385359,-0.26041 -5.729068,-2.99474 -2.213504,-2.73433 -2.213504,-6.5103 l 3.255152,-35.28585 q 1.302061,-7.03113 2.213504,-13.41123 1.041649,-6.3801 2.083297,-12.36958 1.171855,-5.98948 2.734328,-11.71855 1.69268,-5.72907 4.427008,-11.58834 3.64577,-7.81237 9.765457,-13.67164 6.249892,-5.98948 13.932052,-9.37484 4.036388,-1.82289 9.244632,-2.99474 5.33845,-1.30206 10.937312,-2.0833 5.729068,-0.91144 11.32793,-1.30206 5.729068,-0.52082 10.6769,-0.65103 4.947831,-0.26041 8.723808,-0.26041 3.775981,-0.13021 5.729071,-0.13021 4.2968,0 8.85401,0.52083 4.68742,0.39062 8.85402,1.04165 2.2135,0.26041 3.90618,0.78123 1.82288,0.39062 3.77598,0.91145 3.38535,0.65103 6.77071,1.82288 3.38536,1.04165 6.3801,2.34371 7.42175,3.77598 13.54143,9.50505 6.2499,5.72906 10.15608,13.54143 2.86453,5.85927 4.68742,12.23937 1.82288,6.24989 3.12495,12.62999 1.30206,6.3801 2.08329,12.89041 0.91145,6.38009 1.82289,12.36957 l 2.99474,33.46297 q 0,4.1666 -2.21351,7.03113 -2.08329,2.99474 -5.46865,3.25515 l -4.1666,0.26041 q -3.64577,0 -6.24989,-2.60412 -2.47391,-2.47391 -2.73433,-6.3801 l -7.42174,-41.27533 q -1.43227,-4.16659 -2.60413,-7.29154 -1.04164,-3.25515 -3.38535,-3.25515 -2.21351,0 -2.99474,2.60412 -0.65103,2.60412 -0.65103,7.03113 0,3.12495 0.1302,7.03113 0.26041,3.77598 0.52083,7.94257 l 3.25515,18.61947 q 0,1.56247 0.26041,2.21351 0.26041,2.2135 0.52082,4.94783 0.26042,2.73432 0.26042,5.59886 0,3.77598 -0.91145,7.16133 -0.78123,3.38536 -3.38535,5.72907 -2.21351,1.95309 -7.16134,3.64577 -4.81763,1.69268 -11.45814,2.86454 -6.64051,1.17185 -14.58308,1.82288 -7.81236,0.65103 -16.015348,0.65103 -8.33319,0 -16.015349,-0.65103 -7.68216,-0.65103 -14.192464,-1.82288 -6.380099,-1.17186 -11.197724,-2.86454 -4.68742,-1.69268 -7.031129,-3.64577 -2.473916,-2.34371 -3.385359,-5.72907 -0.781236,-3.38535 -0.781236,-7.16133 0,-2.86454 0.260412,-5.59886 0.390618,-2.73433 0.781236,-4.94783 0,-0.52083 0,-1.04165 0,-0.52083 0.260413,-1.17186 l 2.864534,-18.61947 q 0.260412,-3.77598 0.390618,-7.29154 0.260412,-3.64577 0.260412,-6.64051 0,-4.94783 -0.65103,-7.81237 -0.520825,-2.86453 -2.604122,-2.86453 z"
           style=""
           id="path2052" />
      </g>
    </g>
  </g>
</svg>
