<?xml version="1.0" encoding="UTF-8" standalone="no"?>
<!-- Created with Inkscape (http://www.inkscape.org/) -->

<svg
   xmlns:dc="http://purl.org/dc/elements/1.1/"
   xmlns:cc="http://creativecommons.org/ns#"
   xmlns:rdf="http://www.w3.org/1999/02/22-rdf-syntax-ns#"
   xmlns:svg="http://www.w3.org/2000/svg"
   xmlns="http://www.w3.org/2000/svg"
   xmlns:sodipodi="http://sodipodi.sourceforge.net/DTD/sodipodi-0.dtd"
   xmlns:inkscape="http://www.inkscape.org/namespaces/inkscape"
   width="500"
   height="500"
   viewBox="0 0 132.29166 132.29167"
   version="1.1"
   id="svg8"
   inkscape:version="0.92.2 (5c3e80d, 2017-08-06)"
   sodipodi:docname="TRADEBUTTON_ROUND.svg"
   inkscape:export-filename="C:\Users\harshnisar\tradebutton.png"
   inkscape:export-xdpi="96"
   inkscape:export-ydpi="96">
  <defs
     id="defs2" />
  <sodipodi:namedview
     id="base"
     pagecolor="#ffffff"
     bordercolor="#666666"
     borderopacity="1.0"
     inkscape:pageopacity="0.0"
     inkscape:pageshadow="2"
     inkscape:zoom="1.096"
     inkscape:cx="250"
     inkscape:cy="250"
     inkscape:document-units="mm"
     inkscape:current-layer="layer2"
     showgrid="false"
     inkscape:window-width="1366"
     inkscape:window-height="715"
     inkscape:window-x="-8"
     inkscape:window-y="-8"
     inkscape:window-maximized="1"
     units="px" />
  <metadata
     id="metadata5">
    <rdf:RDF>
      <cc:Work
         rdf:about="">
        <dc:format>image/svg+xml</dc:format>
        <dc:type
           rdf:resource="http://purl.org/dc/dcmitype/StillImage" />
        <dc:title />
      </cc:Work>
    </rdf:RDF>
  </metadata>
  <g
     inkscape:groupmode="layer"
     id="layer2"
     inkscape:label="CUT"
     transform="translate(0,-164.70832)">
    <path
       style="opacity:1;vector-effect:none;fill:#ffc700;fill-opacity:1;stroke:none;stroke-width:0;stroke-linecap:butt;stroke-linejoin:miter;stroke-miterlimit:4;stroke-dasharray:none;stroke-dashoffset:0;stroke-opacity:1;paint-order:normal"
       d="M 250 0 A 250.00001 250.00001 0 0 0 0 250 A 250.00001 250.00001 0 0 0 98.214844 448.25781 L 369.90039 30.630859 A 250.00001 250.00001 0 0 0 250 0 z M 388.03125 41.748047 A 250.00001 250.00001 0 0 1 398.26367 49.064453 A 250.00001 250.00001 0 0 0 388.03125 41.748047 z M 408.11523 56.554688 A 250.00001 250.00001 0 0 1 417.58203 64.871094 A 250.00001 250.00001 0 0 0 408.11523 56.554688 z M 426.65234 73.320312 A 250.00001 250.00001 0 0 1 435.20508 82.501953 A 250.00001 250.00001 0 0 0 426.65234 73.320312 z M 443.4082 91.839844 A 250.00001 250.00001 0 0 1 451.00977 101.83984 A 250.00001 250.00001 0 0 0 443.4082 91.839844 z M 458.22852 111.93359 A 250.00001 250.00001 0 0 1 464.79883 122.64844 A 250.00001 250.00001 0 0 0 458.22852 111.93359 z M 470.97266 133.41016 A 250.00001 250.00001 0 0 1 476.44727 144.74414 A 250.00001 250.00001 0 0 0 470.97266 133.41016 z M 481.50781 156.05273 A 250.00001 250.00001 0 0 1 485.80469 167.82031 A 250.00001 250.00001 0 0 0 481.50781 156.05273 z M 489.74023 179.66602 A 250.00001 250.00001 0 0 1 492.83008 191.76953 A 250.00001 250.00001 0 0 0 489.74023 179.66602 z M 495.55859 203.92188 A 250.00001 250.00001 0 0 1 497.43359 216.33398 A 250.00001 250.00001 0 0 0 495.55859 203.92188 z M 498.93164 228.68555 A 250.00001 250.00001 0 0 1 500 250 A 250.00001 250.00001 0 0 0 498.93164 228.68555 z M 498.93555 271.29102 A 250.00001 250.00001 0 0 1 497.42578 283.73242 A 250.00001 250.00001 0 0 0 498.93555 271.29102 z M 495.56445 296.05078 A 250.00001 250.00001 0 0 1 492.82031 308.27148 A 250.00001 250.00001 0 0 0 495.56445 296.05078 z M 489.74023 320.33008 A 250.00001 250.00001 0 0 1 485.79492 332.20898 A 250.00001 250.00001 0 0 0 489.74023 320.33008 z M 481.51953 343.91797 A 250.00001 250.00001 0 0 1 476.41406 355.32812 A 250.00001 250.00001 0 0 0 481.51953 343.91797 z M 470.98438 366.56641 A 250.00001 250.00001 0 0 1 464.76953 377.40234 A 250.00001 250.00001 0 0 0 470.98438 366.56641 z M 458.24219 388.04688 A 250.00001 250.00001 0 0 1 450.98047 398.20312 A 250.00001 250.00001 0 0 0 458.24219 388.04688 z M 443.42383 408.14453 A 250.00001 250.00001 0 0 1 435.17383 417.53516 A 250.00001 250.00001 0 0 0 443.42383 408.14453 z M 426.66602 426.66602 A 250.00001 250.00001 0 0 1 417.53516 435.17383 A 250.00001 250.00001 0 0 0 426.66602 426.66602 z M 408.14453 443.42383 A 250.00001 250.00001 0 0 1 398.20312 450.98047 A 250.00001 250.00001 0 0 0 408.14453 443.42383 z M 98.222656 448.26367 A 250.00001 250.00001 0 0 0 118.13281 462.03125 A 250.00001 250.00001 0 0 1 98.222656 448.26367 z M 388.04688 458.24219 A 250.00001 250.00001 0 0 1 377.40234 464.76953 A 250.00001 250.00001 0 0 0 388.04688 458.24219 z M 119.59375 462.92773 A 250.00001 250.00001 0 0 0 139.25391 473.79688 A 250.00001 250.00001 0 0 1 119.59375 462.92773 z M 366.56641 470.98438 A 250.00001 250.00001 0 0 1 355.32812 476.41406 A 250.00001 250.00001 0 0 0 366.56641 470.98438 z M 142.41797 475.32617 A 250.00001 250.00001 0 0 0 161.35156 483.44336 A 250.00001 250.00001 0 0 1 142.41797 475.32617 z M 343.91797 481.51953 A 250.00001 250.00001 0 0 1 332.20898 485.79492 A 250.00001 250.00001 0 0 0 343.91797 481.51953 z M 166.46875 485.3125 A 250.00001 250.00001 0 0 0 184.26953 490.91602 A 250.00001 250.00001 0 0 1 166.46875 485.3125 z M 320.33008 489.74023 A 250.00001 250.00001 0 0 1 308.27148 492.82031 A 250.00001 250.00001 0 0 0 320.33008 489.74023 z M 191.41602 492.74023 A 250.00001 250.00001 0 0 0 207.77539 496.14258 A 250.00001 250.00001 0 0 1 191.41602 492.74023 z M 296.05078 495.56445 A 250.00001 250.00001 0 0 1 283.73242 497.42578 A 250.00001 250.00001 0 0 0 296.05078 495.56445 z M 217.04102 497.54297 A 250.00001 250.00001 0 0 0 231.64844 499.08203 A 250.00001 250.00001 0 0 1 217.04102 497.54297 z M 271.29102 498.93555 A 250.00001 250.00001 0 0 1 250 500 A 250.00001 250.00001 0 0 0 271.29102 498.93555 z "
       transform="matrix(0.26458333,0,0,0.26458333,0,164.70832)"
       id="path863" />
    <rect
       style="opacity:1;vector-effect:none;fill:#383838;fill-opacity:1;stroke:none;stroke-width:3.78074193;stroke-linecap:butt;stroke-linejoin:miter;stroke-miterlimit:4;stroke-dasharray:none;stroke-dashoffset:0;stroke-opacity:1;paint-order:normal"
       id="rect837-0"
       width="661.45831"
       height="132.29167"
       x="3.3236916"
       y="523.9162"
       ry="66.145836" />
    <path
       style="fill:#00ff00;stroke:#00ff00;stroke-width:1.32291663;stroke-linecap:butt;stroke-linejoin:miter;stroke-miterlimit:4;stroke-dasharray:none;stroke-opacity:1"
       d="M 3.3353275,590.01822 H 36.408237"
       id="path841-0"
       inkscape:connector-curvature="0" />
    <rect
       style="opacity:1;vector-effect:none;fill:#ff2a2a;fill-opacity:1;stroke:none;stroke-width:5.91987276;stroke-linecap:butt;stroke-linejoin:miter;stroke-miterlimit:4;stroke-dasharray:none;stroke-dashoffset:0;stroke-opacity:1;paint-order:normal"
       id="rect837-3-8-8-0-5-0-9-4"
       width="820.06885"
       height="466.41412"
       x="89.578636"
       y="-1068.1182"
       transform="rotate(33.045848)" />
    <path
       inkscape:connector-curvature="0"
       style="opacity:1;vector-effect:none;fill:#383838;fill-opacity:1;stroke:none;stroke-width:5.91987276;stroke-linecap:butt;stroke-linejoin:miter;stroke-miterlimit:4;stroke-dasharray:none;stroke-dashoffset:0;stroke-opacity:1;paint-order:normal"
       d="M 97.87155,172.81428 25.988077,283.31141 A 66.145836,66.145836 0 0 0 66.1479,297.00153 66.145836,66.145836 0 0 0 132.29374,230.8557 66.145836,66.145836 0 0 0 97.87155,172.81428 Z"
       id="rect837-3-8-8-0-5-0-9-4-5-5" />
  </g>
  <g
     inkscape:label="Layer 1"
     inkscape:groupmode="layer"
     id="layer1"
     transform="translate(0,-164.70832)">
    <g
       id="g949"
       transform="translate(-198.9778,0.47721419)">
      <path
         id="rect837-3-8"
         transform="matrix(0.26458333,0,0,0.26458333,0,164.70832)"
         d="m 1033.0586,165.41406 -24.2578,37.28906 c 4.4182,1.96812 6.9336,5.70813 6.9336,11.88282 0,11.0934 -6.6127,13.65429 -17.27932,13.65429 h -6.26758 l -67.54492,103.82813 v 0.0645 h 93.01172 c 10.88,0 45.0138,0.001 57.1738,-22.18554 6.1867,-10.88002 6.187,-28.80032 -0.2129,-40.32032 -8.1066,-14.29341 -17.0674,-17.92129 -28.8007,-21.97461 14.5066,-4.90669 22.8272,-10.23922 27.9472,-25.8125 3.2,-10.0267 2.5594,-26.45354 -5.334,-37.54687 -8.6144,-12.22689 -22.5596,-17.01348 -35.3691,-18.87891 z m -51.03126,103.14649 h 18.77346 c 10.6666,0 17.2812,3.62563 17.2812,13.65234 0,11.09329 -6.6146,13.6543 -17.2812,13.6543 h -18.77346 z"
         style="opacity:1;vector-effect:none;fill:#ffc700;fill-opacity:1;stroke:none;stroke-width:9.89999866;stroke-linecap:butt;stroke-linejoin:miter;stroke-miterlimit:4;stroke-dasharray:none;stroke-dashoffset:0;stroke-opacity:1;paint-order:normal"
         inkscape:connector-curvature="0" />
      <path
         id="rect837-3"
         transform="matrix(0.26458333,0,0,0.26458333,0,164.70832)"
         d="M 924.64258,164.25977 V 332.13281 L 992.35547,228.04492 H 982.0293 v -23.67969 h 25.7324 l 26.0899,-40.10546 z"
         style="opacity:1;vector-effect:none;fill:#383838;fill-opacity:1;stroke:none;stroke-width:9.89999866;stroke-linecap:butt;stroke-linejoin:miter;stroke-miterlimit:4;stroke-dasharray:none;stroke-dashoffset:0;stroke-opacity:1;paint-order:normal"
         inkscape:connector-curvature="0" />
    </g>
  </g>
</svg>
